<svg width="101" height="77" viewBox="0 0 101 77" fill="none" xmlns="http://www.w3.org/2000/svg">
<path d="M7.29545 71.6818V13.7045H22.2273V19.0909H13.7955V66.2955H22.2273V71.6818H7.29545ZM28.233 62V15.4545H46.8693C50.2936 15.4545 53.1496 15.9621 55.4375 16.9773C57.7254 17.9924 59.4451 19.4015 60.5966 21.2045C61.7481 22.9924 62.3239 25.053 62.3239 27.3864C62.3239 29.2045 61.9602 30.803 61.233 32.1818C60.5057 33.5455 59.5057 34.6667 58.233 35.5455C56.9754 36.4091 55.536 37.0227 53.9148 37.3864V37.8409C55.6875 37.9167 57.3466 38.4167 58.892 39.3409C60.4527 40.2652 61.7178 41.5606 62.6875 43.2273C63.6572 44.8788 64.142 46.8485 64.142 49.1364C64.142 51.6061 63.5284 53.8106 62.3011 55.75C61.089 57.6742 59.2936 59.197 56.9148 60.3182C54.536 61.4394 51.6042 62 48.1193 62H28.233ZM38.0739 53.9545H46.0966C48.839 53.9545 50.839 53.4318 52.0966 52.3864C53.3542 51.3258 53.983 49.9167 53.983 48.1591C53.983 46.8712 53.6723 45.7348 53.0511 44.75C52.4299 43.7652 51.5436 42.9924 50.392 42.4318C49.2557 41.8712 47.8996 41.5909 46.3239 41.5909H38.0739V53.9545ZM38.0739 34.9318H45.3693C46.7178 34.9318 47.9148 34.697 48.9602 34.2273C50.0208 33.7424 50.8542 33.0606 51.4602 32.1818C52.0814 31.303 52.392 30.25 52.392 29.0227C52.392 27.3409 51.7936 25.9848 50.5966 24.9545C49.4148 23.9242 47.733 23.4091 45.5511 23.4091H38.0739V34.9318ZM83.3864 13.7045V71.6818H68.4545V66.2955H76.8864V19.0909H68.4545V13.7045H83.3864Z" fill="white"/>
<path d="M93.5554 20.1989C92.4948 20.1989 91.5502 20.0166 90.7216 19.652C89.8977 19.2827 89.2467 18.776 88.7685 18.1321C88.295 17.4834 88.0511 16.7353 88.0369 15.8878H91.1335C91.1525 16.2429 91.2685 16.5554 91.4815 16.8253C91.6993 17.0904 91.9882 17.2964 92.348 17.4432C92.7079 17.59 93.1127 17.6634 93.5625 17.6634C94.0312 17.6634 94.4455 17.5805 94.8054 17.4148C95.1652 17.2491 95.447 17.0194 95.6506 16.7259C95.8542 16.4323 95.956 16.0937 95.956 15.7102C95.956 15.322 95.8471 14.9787 95.6293 14.6804C95.4162 14.3774 95.1084 14.1406 94.706 13.9702C94.3082 13.7997 93.8348 13.7145 93.2855 13.7145H91.929V11.456H93.2855C93.7495 11.456 94.1591 11.3755 94.5142 11.2145C94.8741 11.0535 95.1534 10.831 95.3523 10.5469C95.5511 10.258 95.6506 9.92188 95.6506 9.53835C95.6506 9.17377 95.563 8.85417 95.3878 8.57955C95.2173 8.30019 94.9759 8.08239 94.6634 7.92614C94.3556 7.76989 93.9957 7.69176 93.5838 7.69176C93.1671 7.69176 92.786 7.76752 92.4403 7.91903C92.0947 8.06581 91.8177 8.27651 91.6094 8.55114C91.401 8.82576 91.2898 9.14773 91.2756 9.51705H88.3281C88.3423 8.67898 88.5814 7.94034 89.0455 7.30114C89.5095 6.66193 90.1345 6.1624 90.9205 5.80256C91.7112 5.43797 92.6037 5.25568 93.598 5.25568C94.6018 5.25568 95.4801 5.43797 96.233 5.80256C96.9858 6.16714 97.5705 6.65956 97.9872 7.27983C98.4086 7.89536 98.617 8.58665 98.6122 9.35369C98.617 10.1681 98.3636 10.8475 97.8523 11.392C97.3456 11.9366 96.6851 12.2822 95.8707 12.429V12.5426C96.9408 12.6799 97.7552 13.0516 98.3139 13.6577C98.8774 14.259 99.1567 15.0118 99.152 15.9162C99.1567 16.7448 98.9176 17.4811 98.4347 18.125C97.9564 18.7689 97.2959 19.2756 96.4531 19.6449C95.6103 20.0142 94.6444 20.1989 93.5554 20.1989Z" fill="white"/>
</svg>
